<svg width="24" height="24" viewBox="0 0 24 24" fill="none" xmlns="http://www.w3.org/2000/svg">
<path fill-rule="evenodd" clip-rule="evenodd" d="M12 22C13.1 22 14 21.1 14 20H10C10 21.1 10.9 22 12 22ZM18 15.9091V10.7576C18 7.59455 16.37 4.94667 13.5 4.24606V3.54545C13.5 2.6903 12.83 2 12 2C11.17 2 10.5 2.6903 10.5 3.54545V4.24606C7.64 4.94667 6 7.58424 6 10.7576V15.9091L4 17.9697V19H20V17.9697L18 15.9091ZM16 17H8V10.7143C8 8.11619 9.51 6 12 6C14.49 6 16 8.11619 16 10.7143V17Z" fill="#546E7A"/>
</svg>
